<svg width="40" height="40" viewBox="0 0 40 40" fill="none" xmlns="http://www.w3.org/2000/svg">
    <ellipse cx="20" cy="20.5" rx="18" ry="17.5" fill="#DAEAF6"/>
    <mask id="path-2-outside-1_6_2" maskUnits="userSpaceOnUse" x="9" y="9" width="22" height="9" fill="black">
        <rect fill="white" x="9" y="9" width="22" height="9"/>
        <path d="M10.705 15.812L9.715 15.02L11.057 13.59L9.341 13.095L9.781 11.973L11.31 12.798L11.068 11.027H12.531L12.223 12.798L13.708 12.05L14.159 13.139L12.454 13.579L13.752 15.02L12.751 15.801L11.75 14.151L10.705 15.812ZM16.205 15.812L15.215 15.02L16.557 13.59L14.841 13.095L15.281 11.973L16.81 12.798L16.568 11.027H18.031L17.723 12.798L19.208 12.05L19.659 13.139L17.954 13.579L19.252 15.02L18.251 15.801L17.25 14.151L16.205 15.812ZM21.65 17.473L20.506 16.978L23.894 9.663L25.016 10.235L21.65 17.473ZM27.205 15.812L26.215 15.02L27.557 13.59L25.841 13.095L26.281 11.973L27.81 12.798L27.568 11.027H29.031L28.723 12.798L30.208 12.05L30.659 13.139L28.954 13.579L30.252 15.02L29.251 15.801L28.25 14.151L27.205 15.812Z"/>
    </mask>
    <path d="M10.705 15.812L9.715 15.02L11.057 13.59L9.341 13.095L9.781 11.973L11.31 12.798L11.068 11.027H12.531L12.223 12.798L13.708 12.05L14.159 13.139L12.454 13.579L13.752 15.02L12.751 15.801L11.75 14.151L10.705 15.812ZM16.205 15.812L15.215 15.02L16.557 13.59L14.841 13.095L15.281 11.973L16.81 12.798L16.568 11.027H18.031L17.723 12.798L19.208 12.05L19.659 13.139L17.954 13.579L19.252 15.02L18.251 15.801L17.25 14.151L16.205 15.812ZM21.65 17.473L20.506 16.978L23.894 9.663L25.016 10.235L21.65 17.473ZM27.205 15.812L26.215 15.02L27.557 13.59L25.841 13.095L26.281 11.973L27.81 12.798L27.568 11.027H29.031L28.723 12.798L30.208 12.05L30.659 13.139L28.954 13.579L30.252 15.02L29.251 15.801L28.25 14.151L27.205 15.812Z"
          fill="#4C4C4C"/>
    <path d="M10.705 15.812L10.5801 15.9682L10.755 16.1081L10.8743 15.9185L10.705 15.812ZM9.715 15.02L9.56916 14.8831L9.42105 15.041L9.59006 15.1762L9.715 15.02ZM11.057 13.59L11.2028 13.7269L11.4266 13.4885L11.1124 13.3978L11.057 13.59ZM9.341 13.095L9.15481 13.022L9.07467 13.2263L9.28557 13.2872L9.341 13.095ZM9.781 11.973L9.87597 11.797L9.67725 11.6898L9.59481 11.9L9.781 11.973ZM11.31 12.798L11.215 12.974L11.5615 13.1609L11.5082 12.7709L11.31 12.798ZM11.068 11.027V10.827H10.8388L10.8698 11.0541L11.068 11.027ZM12.531 11.027L12.728 11.0613L12.7688 10.827H12.531V11.027ZM12.223 12.798L12.026 12.7637L11.9578 13.1555L12.313 12.9766L12.223 12.798ZM13.708 12.05L13.8928 11.9735L13.8104 11.7745L13.618 11.8714L13.708 12.05ZM14.159 13.139L14.209 13.3327L14.4319 13.2751L14.3438 13.0625L14.159 13.139ZM12.454 13.579L12.404 13.3853L12.0846 13.4678L12.3054 13.7129L12.454 13.579ZM13.752 15.02L13.875 15.1777L14.0443 15.0456L13.9006 14.8861L13.752 15.02ZM12.751 15.801L12.58 15.9047L12.6967 16.0971L12.874 15.9587L12.751 15.801ZM11.75 14.151L11.921 14.0473L11.7531 13.7705L11.5807 14.0445L11.75 14.151ZM10.8299 15.6558L9.83994 14.8638L9.59006 15.1762L10.5801 15.9682L10.8299 15.6558ZM9.86084 15.1569L11.2028 13.7269L10.9112 13.4531L9.56916 14.8831L9.86084 15.1569ZM11.1124 13.3978L9.39643 12.9028L9.28557 13.2872L11.0016 13.7822L11.1124 13.3978ZM9.52719 13.168L9.96719 12.046L9.59481 11.9L9.15481 13.022L9.52719 13.168ZM9.68603 12.149L11.215 12.974L11.405 12.622L9.87597 11.797L9.68603 12.149ZM11.5082 12.7709L11.2662 10.9999L10.8698 11.0541L11.1118 12.8251L11.5082 12.7709ZM11.068 11.227H12.531V10.827H11.068V11.227ZM12.334 10.9927L12.026 12.7637L12.42 12.8323L12.728 11.0613L12.334 10.9927ZM12.313 12.9766L13.798 12.2286L13.618 11.8714L12.133 12.6194L12.313 12.9766ZM13.5232 12.1265L13.9742 13.2155L14.3438 13.0625L13.8928 11.9735L13.5232 12.1265ZM14.109 12.9453L12.404 13.3853L12.504 13.7727L14.209 13.3327L14.109 12.9453ZM12.3054 13.7129L13.6034 15.1539L13.9006 14.8861L12.6026 13.4451L12.3054 13.7129ZM13.629 14.8623L12.628 15.6433L12.874 15.9587L13.875 15.1777L13.629 14.8623ZM12.922 15.6973L11.921 14.0473L11.579 14.2547L12.58 15.9047L12.922 15.6973ZM11.5807 14.0445L10.5357 15.7055L10.8743 15.9185L11.9193 14.2575L11.5807 14.0445ZM16.205 15.812L16.0801 15.9682L16.255 16.1081L16.3743 15.9185L16.205 15.812ZM15.215 15.02L15.0692 14.8831L14.921 15.041L15.0901 15.1762L15.215 15.02ZM16.557 13.59L16.7028 13.7269L16.9266 13.4885L16.6124 13.3978L16.557 13.59ZM14.841 13.095L14.6548 13.022L14.5747 13.2263L14.7856 13.2872L14.841 13.095ZM15.281 11.973L15.376 11.797L15.1772 11.6898L15.0948 11.9L15.281 11.973ZM16.81 12.798L16.715 12.974L17.0615 13.1609L17.0082 12.7709L16.81 12.798ZM16.568 11.027V10.827H16.3388L16.3698 11.0541L16.568 11.027ZM18.031 11.027L18.228 11.0613L18.2688 10.827H18.031V11.027ZM17.723 12.798L17.526 12.7637L17.4578 13.1555L17.813 12.9766L17.723 12.798ZM19.208 12.05L19.3928 11.9735L19.3104 11.7745L19.118 11.8714L19.208 12.05ZM19.659 13.139L19.709 13.3327L19.9319 13.2751L19.8438 13.0625L19.659 13.139ZM17.954 13.579L17.904 13.3853L17.5846 13.4678L17.8054 13.7129L17.954 13.579ZM19.252 15.02L19.375 15.1777L19.5443 15.0456L19.4006 14.8861L19.252 15.02ZM18.251 15.801L18.08 15.9047L18.1967 16.0971L18.374 15.9587L18.251 15.801ZM17.25 14.151L17.421 14.0473L17.2531 13.7705L17.0807 14.0445L17.25 14.151ZM16.3299 15.6558L15.3399 14.8638L15.0901 15.1762L16.0801 15.9682L16.3299 15.6558ZM15.3608 15.1569L16.7028 13.7269L16.4112 13.4531L15.0692 14.8831L15.3608 15.1569ZM16.6124 13.3978L14.8964 12.9028L14.7856 13.2872L16.5016 13.7822L16.6124 13.3978ZM15.0272 13.168L15.4672 12.046L15.0948 11.9L14.6548 13.022L15.0272 13.168ZM15.186 12.149L16.715 12.974L16.905 12.622L15.376 11.797L15.186 12.149ZM17.0082 12.7709L16.7662 10.9999L16.3698 11.0541L16.6118 12.8251L17.0082 12.7709ZM16.568 11.227H18.031V10.827H16.568V11.227ZM17.834 10.9927L17.526 12.7637L17.92 12.8323L18.228 11.0613L17.834 10.9927ZM17.813 12.9766L19.298 12.2286L19.118 11.8714L17.633 12.6194L17.813 12.9766ZM19.0232 12.1265L19.4742 13.2155L19.8438 13.0625L19.3928 11.9735L19.0232 12.1265ZM19.609 12.9453L17.904 13.3853L18.004 13.7727L19.709 13.3327L19.609 12.9453ZM17.8054 13.7129L19.1034 15.1539L19.4006 14.8861L18.1026 13.4451L17.8054 13.7129ZM19.129 14.8623L18.128 15.6433L18.374 15.9587L19.375 15.1777L19.129 14.8623ZM18.422 15.6973L17.421 14.0473L17.079 14.2547L18.08 15.9047L18.422 15.6973ZM17.0807 14.0445L16.0357 15.7055L16.3743 15.9185L17.4193 14.2575L17.0807 14.0445ZM21.65 17.473L21.5706 17.6566L21.7493 17.7339L21.8313 17.5573L21.65 17.473ZM20.506 16.978L20.3245 16.8939L20.2383 17.0801L20.4266 17.1616L20.506 16.978ZM23.894 9.663L23.9848 9.48482L23.7998 9.39049L23.7125 9.57895L23.894 9.663ZM25.016 10.235L25.1973 10.3193L25.2787 10.1444L25.1068 10.0568L25.016 10.235ZM21.7294 17.2894L20.5854 16.7944L20.4266 17.1616L21.5706 17.6566L21.7294 17.2894ZM20.6875 17.0621L24.0755 9.74705L23.7125 9.57895L20.3245 16.8939L20.6875 17.0621ZM23.8032 9.84118L24.9252 10.4132L25.1068 10.0568L23.9848 9.48482L23.8032 9.84118ZM24.8347 10.1507L21.4687 17.3887L21.8313 17.5573L25.1973 10.3193L24.8347 10.1507ZM27.205 15.812L27.0801 15.9682L27.255 16.1081L27.3743 15.9185L27.205 15.812ZM26.215 15.02L26.0692 14.8831L25.921 15.041L26.0901 15.1762L26.215 15.02ZM27.557 13.59L27.7028 13.7269L27.9266 13.4885L27.6124 13.3978L27.557 13.59ZM25.841 13.095L25.6548 13.022L25.5747 13.2263L25.7856 13.2872L25.841 13.095ZM26.281 11.973L26.376 11.797L26.1772 11.6898L26.0948 11.9L26.281 11.973ZM27.81 12.798L27.715 12.974L28.0615 13.1609L28.0082 12.7709L27.81 12.798ZM27.568 11.027V10.827H27.3388L27.3698 11.0541L27.568 11.027ZM29.031 11.027L29.228 11.0613L29.2688 10.827H29.031V11.027ZM28.723 12.798L28.526 12.7637L28.4578 13.1555L28.813 12.9766L28.723 12.798ZM30.208 12.05L30.3928 11.9735L30.3104 11.7745L30.118 11.8714L30.208 12.05ZM30.659 13.139L30.709 13.3327L30.9319 13.2751L30.8438 13.0625L30.659 13.139ZM28.954 13.579L28.904 13.3853L28.5846 13.4678L28.8054 13.7129L28.954 13.579ZM30.252 15.02L30.375 15.1777L30.5443 15.0456L30.4006 14.8861L30.252 15.02ZM29.251 15.801L29.08 15.9047L29.1967 16.0971L29.374 15.9587L29.251 15.801ZM28.25 14.151L28.421 14.0473L28.2531 13.7705L28.0807 14.0445L28.25 14.151ZM27.3299 15.6558L26.3399 14.8638L26.0901 15.1762L27.0801 15.9682L27.3299 15.6558ZM26.3608 15.1569L27.7028 13.7269L27.4112 13.4531L26.0692 14.8831L26.3608 15.1569ZM27.6124 13.3978L25.8964 12.9028L25.7856 13.2872L27.5016 13.7822L27.6124 13.3978ZM26.0272 13.168L26.4672 12.046L26.0948 11.9L25.6548 13.022L26.0272 13.168ZM26.186 12.149L27.715 12.974L27.905 12.622L26.376 11.797L26.186 12.149ZM28.0082 12.7709L27.7662 10.9999L27.3698 11.0541L27.6118 12.8251L28.0082 12.7709ZM27.568 11.227H29.031V10.827H27.568V11.227ZM28.834 10.9927L28.526 12.7637L28.92 12.8323L29.228 11.0613L28.834 10.9927ZM28.813 12.9766L30.298 12.2286L30.118 11.8714L28.633 12.6194L28.813 12.9766ZM30.0232 12.1265L30.4742 13.2155L30.8438 13.0625L30.3928 11.9735L30.0232 12.1265ZM30.609 12.9453L28.904 13.3853L29.004 13.7727L30.709 13.3327L30.609 12.9453ZM28.8054 13.7129L30.1034 15.1539L30.4006 14.8861L29.1026 13.4451L28.8054 13.7129ZM30.129 14.8623L29.128 15.6433L29.374 15.9587L30.375 15.1777L30.129 14.8623ZM29.422 15.6973L28.421 14.0473L28.079 14.2547L29.08 15.9047L29.422 15.6973ZM28.0807 14.0445L27.0357 15.7055L27.3743 15.9185L28.4193 14.2575L28.0807 14.0445Z"
          fill="#E0E0E0" mask="url(#path-2-outside-1_6_2)"/>
    <rect x="15" y="23" width="11" height="10" fill="white"/>
    <g clip-path="url(#clip0_6_2)" filter="url(#filter0_i_6_2)">
        <path d="M20.5 18.8333L12.625 22.1667V27.1667C12.625 31.7917 15.985 36.1167 20.5 37.1667C25.015 36.1167 28.375 31.7917 28.375 27.1667V22.1667L20.5 18.8333ZM18.75 32.1667L15.25 28.8333L16.4838 27.6583L18.75 29.8083L24.5163 24.3167L25.75 25.5L18.75 32.1667Z"
              fill="#40C495"/>
    </g>
    <defs>
        <filter id="filter0_i_6_2" x="10" y="18" width="21" height="20" filterUnits="userSpaceOnUse"
                color-interpolation-filters="sRGB">
            <feFlood flood-opacity="0" result="BackgroundImageFix"/>
            <feBlend mode="normal" in="SourceGraphic" in2="BackgroundImageFix" result="shape"/>
            <feColorMatrix in="SourceAlpha" type="matrix" values="0 0 0 0 0 0 0 0 0 0 0 0 0 0 0 0 0 0 127 0"
                           result="hardAlpha"/>
            <feOffset/>
            <feGaussianBlur stdDeviation="0.6"/>
            <feComposite in2="hardAlpha" operator="arithmetic" k2="-1" k3="1"/>
            <feColorMatrix type="matrix" values="0 0 0 0 0 0 0 0 0 0 0 0 0 0 0 0 0 0 1 0"/>
            <feBlend mode="normal" in2="shape" result="effect1_innerShadow_6_2"/>
        </filter>
        <clipPath id="clip0_6_2">
            <rect width="21" height="20" fill="white" transform="translate(10 18)"/>
        </clipPath>
    </defs>
</svg>
