<svg width="40" height="40" viewBox="0 0 40 40" fill="none" xmlns="http://www.w3.org/2000/svg">
<g clip-path="url(#clip0_5_16)">
<path d="M16.6667 6.50407H6.66666C4.83333 6.50407 3.34999 7.96748 3.34999 9.7561L3.33333 29.2683C3.33333 31.0569 4.83333 32.5203 6.66666 32.5203H33.3333C35.1667 32.5203 36.6667 31.0569 36.6667 29.2683V13.0081C36.6667 11.2195 35.1667 9.7561 33.3333 9.7561H20L16.6667 6.50407Z" fill="url(#paint0_linear_5_16)"/>
</g>
<path d="M8.318 16.1005L9.119 15.1555L9.179 15.3805L8.378 16.3195L8.318 16.1005ZM8.75 16.6945C8.618 16.6945 8.504 16.6575 8.408 16.5835C8.314 16.5095 8.241 16.4015 8.189 16.2595C8.137 16.1155 8.111 15.9405 8.111 15.7345C8.111 15.5325 8.137 15.3595 8.189 15.2155C8.241 15.0695 8.314 14.9575 8.408 14.8795C8.504 14.8015 8.618 14.7625 8.75 14.7625C8.882 14.7625 8.995 14.8015 9.089 14.8795C9.185 14.9575 9.259 15.0695 9.311 15.2155C9.363 15.3595 9.389 15.5325 9.389 15.7345C9.389 15.9405 9.363 16.1155 9.311 16.2595C9.259 16.4015 9.185 16.5095 9.089 16.5835C8.995 16.6575 8.882 16.6945 8.75 16.6945ZM8.75 16.4335C8.822 16.4335 8.882 16.4065 8.93 16.3525C8.978 16.2985 9.014 16.2195 9.038 16.1155C9.062 16.0115 9.074 15.8845 9.074 15.7345C9.074 15.5865 9.062 15.4615 9.038 15.3595C9.014 15.2555 8.978 15.1755 8.93 15.1195C8.882 15.0635 8.822 15.0355 8.75 15.0355C8.678 15.0355 8.618 15.0635 8.57 15.1195C8.522 15.1755 8.486 15.2555 8.462 15.3595C8.438 15.4615 8.426 15.5865 8.426 15.7345C8.426 15.8845 8.438 16.0115 8.462 16.1155C8.486 16.2195 8.522 16.2985 8.57 16.3525C8.618 16.4065 8.678 16.4335 8.75 16.4335ZM10.124 16.6585V15.1585L9.785 15.2785L9.713 15.0535L10.211 14.7895H10.463V16.6585H10.124ZM11.624 16.6585V15.1585L11.285 15.2785L11.213 15.0535L11.711 14.7895H11.963V16.6585H11.624ZM12.818 16.1005L13.619 15.1555L13.679 15.3805L12.878 16.3195L12.818 16.1005ZM13.25 16.6945C13.118 16.6945 13.004 16.6575 12.908 16.5835C12.814 16.5095 12.741 16.4015 12.689 16.2595C12.637 16.1155 12.611 15.9405 12.611 15.7345C12.611 15.5325 12.637 15.3595 12.689 15.2155C12.741 15.0695 12.814 14.9575 12.908 14.8795C13.004 14.8015 13.118 14.7625 13.25 14.7625C13.382 14.7625 13.495 14.8015 13.589 14.8795C13.685 14.9575 13.759 15.0695 13.811 15.2155C13.863 15.3595 13.889 15.5325 13.889 15.7345C13.889 15.9405 13.863 16.1155 13.811 16.2595C13.759 16.4015 13.685 16.5095 13.589 16.5835C13.495 16.6575 13.382 16.6945 13.25 16.6945ZM13.25 16.4335C13.322 16.4335 13.382 16.4065 13.43 16.3525C13.478 16.2985 13.514 16.2195 13.538 16.1155C13.562 16.0115 13.574 15.8845 13.574 15.7345C13.574 15.5865 13.562 15.4615 13.538 15.3595C13.514 15.2555 13.478 15.1755 13.43 15.1195C13.382 15.0635 13.322 15.0355 13.25 15.0355C13.178 15.0355 13.118 15.0635 13.07 15.1195C13.022 15.1755 12.986 15.2555 12.962 15.3595C12.938 15.4615 12.926 15.5865 12.926 15.7345C12.926 15.8845 12.938 16.0115 12.962 16.1155C12.986 16.2195 13.022 16.2985 13.07 16.3525C13.118 16.4065 13.178 16.4335 13.25 16.4335ZM14.318 16.1005L15.119 15.1555L15.179 15.3805L14.378 16.3195L14.318 16.1005ZM14.75 16.6945C14.618 16.6945 14.504 16.6575 14.408 16.5835C14.314 16.5095 14.241 16.4015 14.189 16.2595C14.137 16.1155 14.111 15.9405 14.111 15.7345C14.111 15.5325 14.137 15.3595 14.189 15.2155C14.241 15.0695 14.314 14.9575 14.408 14.8795C14.504 14.8015 14.618 14.7625 14.75 14.7625C14.882 14.7625 14.995 14.8015 15.089 14.8795C15.185 14.9575 15.259 15.0695 15.311 15.2155C15.363 15.3595 15.389 15.5325 15.389 15.7345C15.389 15.9405 15.363 16.1155 15.311 16.2595C15.259 16.4015 15.185 16.5095 15.089 16.5835C14.995 16.6575 14.882 16.6945 14.75 16.6945ZM14.75 16.4335C14.822 16.4335 14.882 16.4065 14.93 16.3525C14.978 16.2985 15.014 16.2195 15.038 16.1155C15.062 16.0115 15.074 15.8845 15.074 15.7345C15.074 15.5865 15.062 15.4615 15.038 15.3595C15.014 15.2555 14.978 15.1755 14.93 15.1195C14.882 15.0635 14.822 15.0355 14.75 15.0355C14.678 15.0355 14.618 15.0635 14.57 15.1195C14.522 15.1755 14.486 15.2555 14.462 15.3595C14.438 15.4615 14.426 15.5865 14.426 15.7345C14.426 15.8845 14.438 16.0115 14.462 16.1155C14.486 16.2195 14.522 16.2985 14.57 16.3525C14.618 16.4065 14.678 16.4335 14.75 16.4335ZM15.818 16.1005L16.619 15.1555L16.679 15.3805L15.878 16.3195L15.818 16.1005ZM16.25 16.6945C16.118 16.6945 16.004 16.6575 15.908 16.5835C15.814 16.5095 15.741 16.4015 15.689 16.2595C15.637 16.1155 15.611 15.9405 15.611 15.7345C15.611 15.5325 15.637 15.3595 15.689 15.2155C15.741 15.0695 15.814 14.9575 15.908 14.8795C16.004 14.8015 16.118 14.7625 16.25 14.7625C16.382 14.7625 16.495 14.8015 16.589 14.8795C16.685 14.9575 16.759 15.0695 16.811 15.2155C16.863 15.3595 16.889 15.5325 16.889 15.7345C16.889 15.9405 16.863 16.1155 16.811 16.2595C16.759 16.4015 16.685 16.5095 16.589 16.5835C16.495 16.6575 16.382 16.6945 16.25 16.6945ZM16.25 16.4335C16.322 16.4335 16.382 16.4065 16.43 16.3525C16.478 16.2985 16.514 16.2195 16.538 16.1155C16.562 16.0115 16.574 15.8845 16.574 15.7345C16.574 15.5865 16.562 15.4615 16.538 15.3595C16.514 15.2555 16.478 15.1755 16.43 15.1195C16.382 15.0635 16.322 15.0355 16.25 15.0355C16.178 15.0355 16.118 15.0635 16.07 15.1195C16.022 15.1755 15.986 15.2555 15.962 15.3595C15.938 15.4615 15.926 15.5865 15.926 15.7345C15.926 15.8845 15.938 16.0115 15.962 16.1155C15.986 16.2195 16.022 16.2985 16.07 16.3525C16.118 16.4065 16.178 16.4335 16.25 16.4335ZM17.624 16.6585V15.1585L17.285 15.2785L17.213 15.0535L17.711 14.7895H17.963V16.6585H17.624ZM19.124 16.6585V15.1585L18.785 15.2785L18.713 15.0535L19.211 14.7895H19.463V16.6585H19.124ZM21.818 16.1005L22.619 15.1555L22.679 15.3805L21.878 16.3195L21.818 16.1005ZM22.25 16.6945C22.118 16.6945 22.004 16.6575 21.908 16.5835C21.814 16.5095 21.741 16.4015 21.689 16.2595C21.637 16.1155 21.611 15.9405 21.611 15.7345C21.611 15.5325 21.637 15.3595 21.689 15.2155C21.741 15.0695 21.814 14.9575 21.908 14.8795C22.004 14.8015 22.118 14.7625 22.25 14.7625C22.382 14.7625 22.495 14.8015 22.589 14.8795C22.685 14.9575 22.759 15.0695 22.811 15.2155C22.863 15.3595 22.889 15.5325 22.889 15.7345C22.889 15.9405 22.863 16.1155 22.811 16.2595C22.759 16.4015 22.685 16.5095 22.589 16.5835C22.495 16.6575 22.382 16.6945 22.25 16.6945ZM22.25 16.4335C22.322 16.4335 22.382 16.4065 22.43 16.3525C22.478 16.2985 22.514 16.2195 22.538 16.1155C22.562 16.0115 22.574 15.8845 22.574 15.7345C22.574 15.5865 22.562 15.4615 22.538 15.3595C22.514 15.2555 22.478 15.1755 22.43 15.1195C22.382 15.0635 22.322 15.0355 22.25 15.0355C22.178 15.0355 22.118 15.0635 22.07 15.1195C22.022 15.1755 21.986 15.2555 21.962 15.3595C21.938 15.4615 21.926 15.5865 21.926 15.7345C21.926 15.8845 21.938 16.0115 21.962 16.1155C21.986 16.2195 22.022 16.2985 22.07 16.3525C22.118 16.4065 22.178 16.4335 22.25 16.4335ZM23.624 16.6585V15.1585L23.285 15.2785L23.213 15.0535L23.711 14.7895H23.963V16.6585H23.624ZM25.124 16.6585V15.1585L24.785 15.2785L24.713 15.0535L25.211 14.7895H25.463V16.6585H25.124ZM26.318 16.1005L27.119 15.1555L27.179 15.3805L26.378 16.3195L26.318 16.1005ZM26.75 16.6945C26.618 16.6945 26.504 16.6575 26.408 16.5835C26.314 16.5095 26.241 16.4015 26.189 16.2595C26.137 16.1155 26.111 15.9405 26.111 15.7345C26.111 15.5325 26.137 15.3595 26.189 15.2155C26.241 15.0695 26.314 14.9575 26.408 14.8795C26.504 14.8015 26.618 14.7625 26.75 14.7625C26.882 14.7625 26.995 14.8015 27.089 14.8795C27.185 14.9575 27.259 15.0695 27.311 15.2155C27.363 15.3595 27.389 15.5325 27.389 15.7345C27.389 15.9405 27.363 16.1155 27.311 16.2595C27.259 16.4015 27.185 16.5095 27.089 16.5835C26.995 16.6575 26.882 16.6945 26.75 16.6945ZM26.75 16.4335C26.822 16.4335 26.882 16.4065 26.93 16.3525C26.978 16.2985 27.014 16.2195 27.038 16.1155C27.062 16.0115 27.074 15.8845 27.074 15.7345C27.074 15.5865 27.062 15.4615 27.038 15.3595C27.014 15.2555 26.978 15.1755 26.93 15.1195C26.882 15.0635 26.822 15.0355 26.75 15.0355C26.678 15.0355 26.618 15.0635 26.57 15.1195C26.522 15.1755 26.486 15.2555 26.462 15.3595C26.438 15.4615 26.426 15.5865 26.426 15.7345C26.426 15.8845 26.438 16.0115 26.462 16.1155C26.486 16.2195 26.522 16.2985 26.57 16.3525C26.618 16.4065 26.678 16.4335 26.75 16.4335ZM28.124 16.6585V15.1585L27.785 15.2785L27.713 15.0535L28.211 14.7895H28.463V16.6585H28.124ZM29.624 16.6585V15.1585L29.285 15.2785L29.213 15.0535L29.711 14.7895H29.963V16.6585H29.624ZM31.124 16.6585V15.1585L30.785 15.2785L30.713 15.0535L31.211 14.7895H31.463V16.6585H31.124ZM32.624 16.6585V15.1585L32.285 15.2785L32.213 15.0535L32.711 14.7895H32.963V16.6585H32.624ZM8.318 19.1005L9.119 18.1555L9.179 18.3805L8.378 19.3195L8.318 19.1005ZM8.75 19.6945C8.618 19.6945 8.504 19.6575 8.408 19.5835C8.314 19.5095 8.241 19.4015 8.189 19.2595C8.137 19.1155 8.111 18.9405 8.111 18.7345C8.111 18.5325 8.137 18.3595 8.189 18.2155C8.241 18.0695 8.314 17.9575 8.408 17.8795C8.504 17.8015 8.618 17.7625 8.75 17.7625C8.882 17.7625 8.995 17.8015 9.089 17.8795C9.185 17.9575 9.259 18.0695 9.311 18.2155C9.363 18.3595 9.389 18.5325 9.389 18.7345C9.389 18.9405 9.363 19.1155 9.311 19.2595C9.259 19.4015 9.185 19.5095 9.089 19.5835C8.995 19.6575 8.882 19.6945 8.75 19.6945ZM8.75 19.4335C8.822 19.4335 8.882 19.4065 8.93 19.3525C8.978 19.2985 9.014 19.2195 9.038 19.1155C9.062 19.0115 9.074 18.8845 9.074 18.7345C9.074 18.5865 9.062 18.4615 9.038 18.3595C9.014 18.2555 8.978 18.1755 8.93 18.1195C8.882 18.0635 8.822 18.0355 8.75 18.0355C8.678 18.0355 8.618 18.0635 8.57 18.1195C8.522 18.1755 8.486 18.2555 8.462 18.3595C8.438 18.4615 8.426 18.5865 8.426 18.7345C8.426 18.8845 8.438 19.0115 8.462 19.1155C8.486 19.2195 8.522 19.2985 8.57 19.3525C8.618 19.4065 8.678 19.4335 8.75 19.4335ZM10.124 19.6585V18.1585L9.785 18.2785L9.713 18.0535L10.211 17.7895H10.463V19.6585H10.124ZM11.624 19.6585V18.1585L11.285 18.2785L11.213 18.0535L11.711 17.7895H11.963V19.6585H11.624ZM12.818 19.1005L13.619 18.1555L13.679 18.3805L12.878 19.3195L12.818 19.1005ZM13.25 19.6945C13.118 19.6945 13.004 19.6575 12.908 19.5835C12.814 19.5095 12.741 19.4015 12.689 19.2595C12.637 19.1155 12.611 18.9405 12.611 18.7345C12.611 18.5325 12.637 18.3595 12.689 18.2155C12.741 18.0695 12.814 17.9575 12.908 17.8795C13.004 17.8015 13.118 17.7625 13.25 17.7625C13.382 17.7625 13.495 17.8015 13.589 17.8795C13.685 17.9575 13.759 18.0695 13.811 18.2155C13.863 18.3595 13.889 18.5325 13.889 18.7345C13.889 18.9405 13.863 19.1155 13.811 19.2595C13.759 19.4015 13.685 19.5095 13.589 19.5835C13.495 19.6575 13.382 19.6945 13.25 19.6945ZM13.25 19.4335C13.322 19.4335 13.382 19.4065 13.43 19.3525C13.478 19.2985 13.514 19.2195 13.538 19.1155C13.562 19.0115 13.574 18.8845 13.574 18.7345C13.574 18.5865 13.562 18.4615 13.538 18.3595C13.514 18.2555 13.478 18.1755 13.43 18.1195C13.382 18.0635 13.322 18.0355 13.25 18.0355C13.178 18.0355 13.118 18.0635 13.07 18.1195C13.022 18.1755 12.986 18.2555 12.962 18.3595C12.938 18.4615 12.926 18.5865 12.926 18.7345C12.926 18.8845 12.938 19.0115 12.962 19.1155C12.986 19.2195 13.022 19.2985 13.07 19.3525C13.118 19.4065 13.178 19.4335 13.25 19.4335ZM14.318 19.1005L15.119 18.1555L15.179 18.3805L14.378 19.3195L14.318 19.1005ZM14.75 19.6945C14.618 19.6945 14.504 19.6575 14.408 19.5835C14.314 19.5095 14.241 19.4015 14.189 19.2595C14.137 19.1155 14.111 18.9405 14.111 18.7345C14.111 18.5325 14.137 18.3595 14.189 18.2155C14.241 18.0695 14.314 17.9575 14.408 17.8795C14.504 17.8015 14.618 17.7625 14.75 17.7625C14.882 17.7625 14.995 17.8015 15.089 17.8795C15.185 17.9575 15.259 18.0695 15.311 18.2155C15.363 18.3595 15.389 18.5325 15.389 18.7345C15.389 18.9405 15.363 19.1155 15.311 19.2595C15.259 19.4015 15.185 19.5095 15.089 19.5835C14.995 19.6575 14.882 19.6945 14.75 19.6945ZM14.75 19.4335C14.822 19.4335 14.882 19.4065 14.93 19.3525C14.978 19.2985 15.014 19.2195 15.038 19.1155C15.062 19.0115 15.074 18.8845 15.074 18.7345C15.074 18.5865 15.062 18.4615 15.038 18.3595C15.014 18.2555 14.978 18.1755 14.93 18.1195C14.882 18.0635 14.822 18.0355 14.75 18.0355C14.678 18.0355 14.618 18.0635 14.57 18.1195C14.522 18.1755 14.486 18.2555 14.462 18.3595C14.438 18.4615 14.426 18.5865 14.426 18.7345C14.426 18.8845 14.438 19.0115 14.462 19.1155C14.486 19.2195 14.522 19.2985 14.57 19.3525C14.618 19.4065 14.678 19.4335 14.75 19.4335ZM16.124 19.6585V18.1585L15.785 18.2785L15.713 18.0535L16.211 17.7895H16.463V19.6585H16.124ZM17.318 19.1005L18.119 18.1555L18.179 18.3805L17.378 19.3195L17.318 19.1005ZM17.75 19.6945C17.618 19.6945 17.504 19.6575 17.408 19.5835C17.314 19.5095 17.241 19.4015 17.189 19.2595C17.137 19.1155 17.111 18.9405 17.111 18.7345C17.111 18.5325 17.137 18.3595 17.189 18.2155C17.241 18.0695 17.314 17.9575 17.408 17.8795C17.504 17.8015 17.618 17.7625 17.75 17.7625C17.882 17.7625 17.995 17.8015 18.089 17.8795C18.185 17.9575 18.259 18.0695 18.311 18.2155C18.363 18.3595 18.389 18.5325 18.389 18.7345C18.389 18.9405 18.363 19.1155 18.311 19.2595C18.259 19.4015 18.185 19.5095 18.089 19.5835C17.995 19.6575 17.882 19.6945 17.75 19.6945ZM17.75 19.4335C17.822 19.4335 17.882 19.4065 17.93 19.3525C17.978 19.2985 18.014 19.2195 18.038 19.1155C18.062 19.0115 18.074 18.8845 18.074 18.7345C18.074 18.5865 18.062 18.4615 18.038 18.3595C18.014 18.2555 17.978 18.1755 17.93 18.1195C17.882 18.0635 17.822 18.0355 17.75 18.0355C17.678 18.0355 17.618 18.0635 17.57 18.1195C17.522 18.1755 17.486 18.2555 17.462 18.3595C17.438 18.4615 17.426 18.5865 17.426 18.7345C17.426 18.8845 17.438 19.0115 17.462 19.1155C17.486 19.2195 17.522 19.2985 17.57 19.3525C17.618 19.4065 17.678 19.4335 17.75 19.4335ZM18.818 19.1005L19.619 18.1555L19.679 18.3805L18.878 19.3195L18.818 19.1005ZM19.25 19.6945C19.118 19.6945 19.004 19.6575 18.908 19.5835C18.814 19.5095 18.741 19.4015 18.689 19.2595C18.637 19.1155 18.611 18.9405 18.611 18.7345C18.611 18.5325 18.637 18.3595 18.689 18.2155C18.741 18.0695 18.814 17.9575 18.908 17.8795C19.004 17.8015 19.118 17.7625 19.25 17.7625C19.382 17.7625 19.495 17.8015 19.589 17.8795C19.685 17.9575 19.759 18.0695 19.811 18.2155C19.863 18.3595 19.889 18.5325 19.889 18.7345C19.889 18.9405 19.863 19.1155 19.811 19.2595C19.759 19.4015 19.685 19.5095 19.589 19.5835C19.495 19.6575 19.382 19.6945 19.25 19.6945ZM19.25 19.4335C19.322 19.4335 19.382 19.4065 19.43 19.3525C19.478 19.2985 19.514 19.2195 19.538 19.1155C19.562 19.0115 19.574 18.8845 19.574 18.7345C19.574 18.5865 19.562 18.4615 19.538 18.3595C19.514 18.2555 19.478 18.1755 19.43 18.1195C19.382 18.0635 19.322 18.0355 19.25 18.0355C19.178 18.0355 19.118 18.0635 19.07 18.1195C19.022 18.1755 18.986 18.2555 18.962 18.3595C18.938 18.4615 18.926 18.5865 18.926 18.7345C18.926 18.8845 18.938 19.0115 18.962 19.1155C18.986 19.2195 19.022 19.2985 19.07 19.3525C19.118 19.4065 19.178 19.4335 19.25 19.4335ZM21.818 19.1005L22.619 18.1555L22.679 18.3805L21.878 19.3195L21.818 19.1005ZM22.25 19.6945C22.118 19.6945 22.004 19.6575 21.908 19.5835C21.814 19.5095 21.741 19.4015 21.689 19.2595C21.637 19.1155 21.611 18.9405 21.611 18.7345C21.611 18.5325 21.637 18.3595 21.689 18.2155C21.741 18.0695 21.814 17.9575 21.908 17.8795C22.004 17.8015 22.118 17.7625 22.25 17.7625C22.382 17.7625 22.495 17.8015 22.589 17.8795C22.685 17.9575 22.759 18.0695 22.811 18.2155C22.863 18.3595 22.889 18.5325 22.889 18.7345C22.889 18.9405 22.863 19.1155 22.811 19.2595C22.759 19.4015 22.685 19.5095 22.589 19.5835C22.495 19.6575 22.382 19.6945 22.25 19.6945ZM22.25 19.4335C22.322 19.4335 22.382 19.4065 22.43 19.3525C22.478 19.2985 22.514 19.2195 22.538 19.1155C22.562 19.0115 22.574 18.8845 22.574 18.7345C22.574 18.5865 22.562 18.4615 22.538 18.3595C22.514 18.2555 22.478 18.1755 22.43 18.1195C22.382 18.0635 22.322 18.0355 22.25 18.0355C22.178 18.0355 22.118 18.0635 22.07 18.1195C22.022 18.1755 21.986 18.2555 21.962 18.3595C21.938 18.4615 21.926 18.5865 21.926 18.7345C21.926 18.8845 21.938 19.0115 21.962 19.1155C21.986 19.2195 22.022 19.2985 22.07 19.3525C22.118 19.4065 22.178 19.4335 22.25 19.4335ZM23.624 19.6585V18.1585L23.285 18.2785L23.213 18.0535L23.711 17.7895H23.963V19.6585H23.624ZM25.124 19.6585V18.1585L24.785 18.2785L24.713 18.0535L25.211 17.7895H25.463V19.6585H25.124ZM26.318 19.1005L27.119 18.1555L27.179 18.3805L26.378 19.3195L26.318 19.1005ZM26.75 19.6945C26.618 19.6945 26.504 19.6575 26.408 19.5835C26.314 19.5095 26.241 19.4015 26.189 19.2595C26.137 19.1155 26.111 18.9405 26.111 18.7345C26.111 18.5325 26.137 18.3595 26.189 18.2155C26.241 18.0695 26.314 17.9575 26.408 17.8795C26.504 17.8015 26.618 17.7625 26.75 17.7625C26.882 17.7625 26.995 17.8015 27.089 17.8795C27.185 17.9575 27.259 18.0695 27.311 18.2155C27.363 18.3595 27.389 18.5325 27.389 18.7345C27.389 18.9405 27.363 19.1155 27.311 19.2595C27.259 19.4015 27.185 19.5095 27.089 19.5835C26.995 19.6575 26.882 19.6945 26.75 19.6945ZM26.75 19.4335C26.822 19.4335 26.882 19.4065 26.93 19.3525C26.978 19.2985 27.014 19.2195 27.038 19.1155C27.062 19.0115 27.074 18.8845 27.074 18.7345C27.074 18.5865 27.062 18.4615 27.038 18.3595C27.014 18.2555 26.978 18.1755 26.93 18.1195C26.882 18.0635 26.822 18.0355 26.75 18.0355C26.678 18.0355 26.618 18.0635 26.57 18.1195C26.522 18.1755 26.486 18.2555 26.462 18.3595C26.438 18.4615 26.426 18.5865 26.426 18.7345C26.426 18.8845 26.438 19.0115 26.462 19.1155C26.486 19.2195 26.522 19.2985 26.57 19.3525C26.618 19.4065 26.678 19.4335 26.75 19.4335ZM27.818 19.1005L28.619 18.1555L28.679 18.3805L27.878 19.3195L27.818 19.1005ZM28.25 19.6945C28.118 19.6945 28.004 19.6575 27.908 19.5835C27.814 19.5095 27.741 19.4015 27.689 19.2595C27.637 19.1155 27.611 18.9405 27.611 18.7345C27.611 18.5325 27.637 18.3595 27.689 18.2155C27.741 18.0695 27.814 17.9575 27.908 17.8795C28.004 17.8015 28.118 17.7625 28.25 17.7625C28.382 17.7625 28.495 17.8015 28.589 17.8795C28.685 17.9575 28.759 18.0695 28.811 18.2155C28.863 18.3595 28.889 18.5325 28.889 18.7345C28.889 18.9405 28.863 19.1155 28.811 19.2595C28.759 19.4015 28.685 19.5095 28.589 19.5835C28.495 19.6575 28.382 19.6945 28.25 19.6945ZM28.25 19.4335C28.322 19.4335 28.382 19.4065 28.43 19.3525C28.478 19.2985 28.514 19.2195 28.538 19.1155C28.562 19.0115 28.574 18.8845 28.574 18.7345C28.574 18.5865 28.562 18.4615 28.538 18.3595C28.514 18.2555 28.478 18.1755 28.43 18.1195C28.382 18.0635 28.322 18.0355 28.25 18.0355C28.178 18.0355 28.118 18.0635 28.07 18.1195C28.022 18.1755 27.986 18.2555 27.962 18.3595C27.938 18.4615 27.926 18.5865 27.926 18.7345C27.926 18.8845 27.938 19.0115 27.962 19.1155C27.986 19.2195 28.022 19.2985 28.07 19.3525C28.118 19.4065 28.178 19.4335 28.25 19.4335ZM29.624 19.6585V18.1585L29.285 18.2785L29.213 18.0535L29.711 17.7895H29.963V19.6585H29.624ZM30.818 19.1005L31.619 18.1555L31.679 18.3805L30.878 19.3195L30.818 19.1005ZM31.25 19.6945C31.118 19.6945 31.004 19.6575 30.908 19.5835C30.814 19.5095 30.741 19.4015 30.689 19.2595C30.637 19.1155 30.611 18.9405 30.611 18.7345C30.611 18.5325 30.637 18.3595 30.689 18.2155C30.741 18.0695 30.814 17.9575 30.908 17.8795C31.004 17.8015 31.118 17.7625 31.25 17.7625C31.382 17.7625 31.495 17.8015 31.589 17.8795C31.685 17.9575 31.759 18.0695 31.811 18.2155C31.863 18.3595 31.889 18.5325 31.889 18.7345C31.889 18.9405 31.863 19.1155 31.811 19.2595C31.759 19.4015 31.685 19.5095 31.589 19.5835C31.495 19.6575 31.382 19.6945 31.25 19.6945ZM31.25 19.4335C31.322 19.4335 31.382 19.4065 31.43 19.3525C31.478 19.2985 31.514 19.2195 31.538 19.1155C31.562 19.0115 31.574 18.8845 31.574 18.7345C31.574 18.5865 31.562 18.4615 31.538 18.3595C31.514 18.2555 31.478 18.1755 31.43 18.1195C31.382 18.0635 31.322 18.0355 31.25 18.0355C31.178 18.0355 31.118 18.0635 31.07 18.1195C31.022 18.1755 30.986 18.2555 30.962 18.3595C30.938 18.4615 30.926 18.5865 30.926 18.7345C30.926 18.8845 30.938 19.0115 30.962 19.1155C30.986 19.2195 31.022 19.2985 31.07 19.3525C31.118 19.4065 31.178 19.4335 31.25 19.4335ZM32.624 19.6585V18.1585L32.285 18.2785L32.213 18.0535L32.711 17.7895H32.963V19.6585H32.624Z" fill="#363636"/>
<rect x="28" y="25.3659" width="8" height="7.80488" fill="white"/>
<g clip-path="url(#clip1_5_16)">
<path d="M32 22.1138L26 24.7154V28.6179C26 32.2276 28.56 35.6033 32 36.4228C35.44 35.6033 38 32.2276 38 28.6179V24.7154L32 22.1138ZM30.6667 32.5203L28 29.9187L28.94 29.0016L30.6667 30.6797L35.06 26.3935L36 27.3171L30.6667 32.5203Z" fill="#40C495"/>
</g>
<defs>
<linearGradient id="paint0_linear_5_16" x1="20" y1="6.50407" x2="20" y2="32.5203" gradientUnits="userSpaceOnUse">
<stop stop-color="#FFEB3B"/>
<stop offset="1" stop-color="#C1A200"/>
</linearGradient>
<clipPath id="clip0_5_16">
<rect width="40" height="39.0244" fill="white"/>
</clipPath>
<clipPath id="clip1_5_16">
<rect width="16" height="15.6098" fill="white" transform="translate(24 21.4634)"/>
</clipPath>
</defs>
</svg>
