<svg width="16" height="16" viewBox="0 0 16 16" fill="none" xmlns="http://www.w3.org/2000/svg">
    <path fill-rule="evenodd" clip-rule="evenodd"
          d="M4.07812 7.74357V7.96872C4.07812 8.3958 3.99089 8.70049 3.81641 8.88278C3.64453 9.06507 3.34115 9.15622 2.90625 9.15622V9.60934V9.64059V10.0937C3.34115 10.0937 3.64453 10.1849 3.81641 10.3672C3.99089 10.5494 4.07812 10.8541 4.07812 11.2812V12.5312C4.07812 12.8906 4.11198 13.2018 4.17969 13.4648C4.25 13.7278 4.36328 13.9453 4.51953 14.1172C4.67578 14.289 4.88411 14.4166 5.14453 14.5C5.40495 14.5833 5.72656 14.625 6.10938 14.625V13.8593C5.80729 13.8593 5.56901 13.8112 5.39453 13.7148C5.22266 13.6211 5.10026 13.4765 5.02734 13.2812C4.95703 13.0859 4.92188 12.8359 4.92188 12.5312V10.9687C4.92188 10.7656 4.89453 10.5807 4.83984 10.414C4.78776 10.2474 4.6901 10.1041 4.54688 9.98434C4.40365 9.86455 4.19922 9.77211 3.93359 9.707C3.89975 9.69862 3.8646 9.69079 3.82812 9.68349V9.56645C3.8646 9.55915 3.89975 9.55132 3.93359 9.54294C4.19922 9.47783 4.40365 9.38539 4.54688 9.26559C4.6901 9.1458 4.78776 9.00257 4.83984 8.83591C4.89453 8.66924 4.92188 8.48435 4.92188 8.28122V7.84657C4.63156 7.81629 4.34992 7.78186 4.07812 7.74357ZM11.1416 7.83987V8.28122C11.1416 8.48435 11.1676 8.66924 11.2197 8.83591C11.2744 9.00257 11.3734 9.1458 11.5166 9.26559C11.6598 9.38539 11.863 9.47783 12.126 9.54294C12.1611 9.55154 12.1975 9.55957 12.2354 9.56704V9.6829C12.1975 9.69037 12.1611 9.6984 12.126 9.707C11.863 9.77211 11.6598 9.86455 11.5166 9.98434C11.3734 10.1041 11.2744 10.2474 11.2197 10.414C11.1676 10.5807 11.1416 10.7656 11.1416 10.9687V12.5312C11.1416 12.8359 11.1051 13.0859 11.0322 13.2812C10.9619 13.4765 10.8395 13.6211 10.665 13.7148C10.4932 13.8112 10.2562 13.8593 9.9541 13.8593V14.625C10.3369 14.625 10.6585 14.5833 10.9189 14.5C11.1794 14.4166 11.3877 14.289 11.5439 14.1172C11.7002 13.9453 11.8122 13.7278 11.8799 13.4648C11.9502 13.2018 11.9854 12.8906 11.9854 12.5312V11.2812C11.9854 10.8541 12.0713 10.5494 12.2432 10.3672C12.4176 10.1849 12.7223 10.0937 13.1572 10.0937V9.64059V9.60934V9.15622C12.7223 9.15622 12.4176 9.06507 12.2432 8.88278C12.0713 8.70049 11.9854 8.3958 11.9854 7.96872V7.73453C11.7137 7.77361 11.4321 7.80883 11.1416 7.83987Z"
          fill="#AFB1B3"/>
    <ellipse cx="8" cy="5.5" rx="7" ry="1.5" fill="#AFB1B3"/>
    <circle cx="8" cy="4" r="3" fill="#AFB1B3"/>
</svg>
