<svg width="16" height="16" viewBox="0 0 16 16" fill="none" xmlns="http://www.w3.org/2000/svg">
    <circle cx="8" cy="8" r="8" fill="#DAEAF6"/>
    <path d="M2.93 6.352L2.39 5.92L3.122 5.14L2.186 4.87L2.426 4.258L3.26 4.708L3.128 3.742H3.926L3.758 4.708L4.568 4.3L4.814 4.894L3.884 5.134L4.592 5.92L4.046 6.346L3.5 5.446L2.93 6.352ZM5.93 6.352L5.39 5.92L6.122 5.14L5.186 4.87L5.426 4.258L6.26 4.708L6.128 3.742H6.926L6.758 4.708L7.568 4.3L7.814 4.894L6.884 5.134L7.592 5.92L7.046 6.346L6.5 5.446L5.93 6.352ZM8.9 7.258L8.276 6.988L10.124 2.998L10.736 3.31L8.9 7.258ZM11.93 6.352L11.39 5.92L12.122 5.14L11.186 4.87L11.426 4.258L12.26 4.708L12.128 3.742H12.926L12.758 4.708L13.568 4.3L13.814 4.894L12.884 5.134L13.592 5.92L13.046 6.346L12.5 5.446L11.93 6.352Z"
          fill="#303030"/>
    <rect x="5.75" y="8" width="5" height="5" fill="white"/>
    <g filter="url(#filter0_i_11_17)">
        <path d="M8.25 5.45834L4.125 7.29168V10.0417C4.125 12.5854 5.885 14.9642 8.25 15.5417C10.615 14.9642 12.375 12.5854 12.375 10.0417V7.29168L8.25 5.45834ZM7.33333 12.7917L5.5 10.9583L6.14625 10.3121L7.33333 11.4946L10.3538 8.47418L11 9.12501L7.33333 12.7917Z"
              fill="#40C495"/>
    </g>
    <defs>
        <filter id="filter0_i_11_17" x="2.75" y="5" width="11" height="11" filterUnits="userSpaceOnUse"
                color-interpolation-filters="sRGB">
            <feFlood flood-opacity="0" result="BackgroundImageFix"/>
            <feBlend mode="normal" in="SourceGraphic" in2="BackgroundImageFix" result="shape"/>
            <feColorMatrix in="SourceAlpha" type="matrix" values="0 0 0 0 0 0 0 0 0 0 0 0 0 0 0 0 0 0 127 0"
                           result="hardAlpha"/>
            <feOffset/>
            <feGaussianBlur stdDeviation="0.6"/>
            <feComposite in2="hardAlpha" operator="arithmetic" k2="-1" k3="1"/>
            <feColorMatrix type="matrix" values="0 0 0 0 0 0 0 0 0 0 0 0 0 0 0 0 0 0 1 0"/>
            <feBlend mode="normal" in2="shape" result="effect1_innerShadow_11_17"/>
        </filter>
    </defs>
</svg>
