<svg width="18" height="18" viewBox="0 0 18 18" fill="none" xmlns="http://www.w3.org/2000/svg">
    <g clip-path="url(#clip0_5_28)">
        <path d="M7.5 3H3C2.175 3 1.5075 3.675 1.5075 4.5L1.5 13.5C1.5 14.325 2.175 15 3 15H15C15.825 15 16.5 14.325 16.5 13.5V6C16.5 5.175 15.825 4.5 15 4.5H9L7.5 3Z"
              fill="url(#paint0_linear_5_28)"/>
    </g>
    <rect x="9" y="9" width="7" height="5" rx="1" fill="white"/>
    <g clip-path="url(#clip1_5_28)">
        <path d="M12.5 6.45834L8.375 8.29168V11.0417C8.375 13.5854 10.135 15.9642 12.5 16.5417C14.865 15.9642 16.625 13.5854 16.625 11.0417V8.29168L12.5 6.45834ZM11.5833 13.7917L9.75 11.9583L10.3963 11.3121L11.5833 12.4946L14.6038 9.47418L15.25 10.125L11.5833 13.7917Z"
              fill="#40C495"/>
    </g>
    <defs>
        <linearGradient id="paint0_linear_5_28" x1="9" y1="3" x2="9" y2="15" gradientUnits="userSpaceOnUse">
            <stop stop-color="#FFEB3B"/>
            <stop offset="1" stop-color="#C1A200"/>
        </linearGradient>
        <clipPath id="clip0_5_28">
            <rect width="18" height="18" fill="white"/>
        </clipPath>
        <clipPath id="clip1_5_28">
            <rect width="11" height="11" fill="white" transform="translate(7 6)"/>
        </clipPath>
    </defs>
</svg>
